<svg width="24" height="24" viewBox="0 0 24 24" fill="none" xmlns="http://www.w3.org/2000/svg">
<g transform="translate(2.1 3.9)">
<g id="Group">
<path id="Vector" fill-rule="evenodd" clip-rule="evenodd" d="M3.4 3.7H6.2L7.2 1.8C7.5 1.25 8.1 0.9 8.7 0.9H11.1C11.7 0.9 12.3 1.25 12.6 1.8L13.6 3.7H16.4C17.8 3.7 18.9 4.8 18.9 6.2V13C18.9 14.4 17.8 15.5 16.4 15.5H3.4C2 15.5 0.9 14.4 0.9 13V6.2C0.9 4.8 2 3.7 3.4 3.7ZM9.9 12.9C11.778 12.9 13.3 11.378 13.3 9.5C13.3 7.622 11.778 6.1 9.9 6.1C8.022 6.1 6.5 7.622 6.5 9.5C6.5 11.378 8.022 12.9 9.9 12.9Z" fill="#EB571E" stroke="#EB571E" stroke-width="1.8" stroke-linecap="round" stroke-linejoin="round"/>
</g>
</g>
</svg>
