<svg xmlns="http://www.w3.org/2000/svg" viewBox="0 0 24 24" width="24" height="24"><path fill="#ffffff" d="M11.944 0A12 12 0 1 0 24 12.088 12.013 12.013 0 0 0 11.944 0Zm4.962 7.26c-.087.79-1.355 7.804-1.91 10.348-.235 1.076-.698 1.436-1.146 1.472-.974.078-1.713-.644-2.657-1.262l-1.996-1.346c-.843-.567-.297-1.039.186-1.526.126-.13 2.318-2.124 2.36-2.305a.175.175 0 0 0-.041-.152.177.177 0 0 0-.154-.03c-.082.018-1.384.88-3.908 2.582a1.763 1.763 0 0 1-1.036.387c-.485-.012-1.417-.274-2.11-.5-.85-.277-1.526-.423-1.467-.893.03-.245.368-.495 1.013-.749 3.964-1.726 6.608-2.864 7.932-3.414 3.778-1.572 4.564-1.845 5.075-1.853a.89.89 0 0 1 .525.178.644.644 0 0 1 .216.438 2.688 2.688 0 0 1 .118.525Z"/></svg>
